<?xml version="1.0" encoding="UTF-8"?>
<svg xmlns="http://www.w3.org/2000/svg" viewBox="0 0 1120 330" role="img" aria-labelledby="title desc">
  <title id="title">SyedBaqarAbbas&apos;s GitHub activity</title>
  <desc id="desc">A rolling 53-week contribution calendar with commit, pull request, and review totals, plus recent public releases.</desc>
  <style>
    .sans{font-family:Inter,ui-sans-serif,system-ui,-apple-system,BlinkMacSystemFont,"Segoe UI",sans-serif}
    .mono{font-family:ui-monospace,SFMono-Regular,Menlo,Monaco,Consolas,monospace}
    .heading{font-size:22px;font-weight:720;fill:#10141d}
    .subtle,.month,.label{fill:#526072}
    .subtle{font-size:13px}.month{font-size:11px}.label{font-size:10px;letter-spacing:1.2px}
    .value{font-size:24px;font-weight:720;fill:#10141d}
    .flow{stroke-dasharray:6 12;animation:flow 8s linear infinite}
    .scan{animation:scan 10s ease-in-out infinite}
    .live{transform-box:fill-box;transform-origin:center;animation:pulse 3s ease-in-out infinite}
    @keyframes flow{to{stroke-dashoffset:-108}}
    @keyframes scan{0%,12%{transform:translateX(-45px);opacity:0}25%,72%{opacity:.16}90%,100%{transform:translateX(845px);opacity:0}}
    @keyframes pulse{0%,100%{opacity:.45;transform:scale(.9)}50%{opacity:1;transform:scale(1.18)}}
    @media (prefers-reduced-motion:reduce){.flow,.scan,.live{animation:none}.scan{display:none}.live{opacity:.85}}
  </style>
  <defs>
    <clipPath id="panel"><rect x="1" y="1" width="1118" height="328" rx="20"/></clipPath>
  </defs>
  <rect x="1" y="1" width="1118" height="328" rx="20" fill="#f8fafc" stroke="#cbd7e3" stroke-width="2"/>
  <path class="flow" d="M772 39H1070" fill="none" stroke="#159bc9" stroke-opacity=".28" stroke-width="1.5"/>
  <circle class="live" cx="1070" cy="39" r="5" fill="#159bc9"/>
  <text class="sans heading" x="60" y="43">proof of life</text>
  <text class="mono subtle" x="60" y="64">last 12 months · refreshed Jul 18, 2026</text>
  
      <g transform="translate(60 82)">
        <text class="mono label" x="0" y="0">CONTRIBUTIONS</text>
        <text class="sans value" x="0" y="28">390</text>
      </g>
      <g transform="translate(267 82)">
        <text class="mono label" x="0" y="0">COMMITS</text>
        <text class="sans value" x="0" y="28">259</text>
      </g>
      <g transform="translate(474 82)">
        <text class="mono label" x="0" y="0">PULL REQUESTS</text>
        <text class="sans value" x="0" y="28">53</text>
      </g>
      <g transform="translate(681 82)">
        <text class="mono label" x="0" y="0">REVIEWS</text>
        <text class="sans value" x="0" y="28">5</text>
      </g>
      <g transform="translate(888 82)">
        <text class="mono label" x="0" y="0">RECENT RELEASES</text>
        <text class="sans value" x="0" y="28">1</text>
      </g>
  <text class="mono month" x="60" y="125">Jul</text><text class="mono month" x="105" y="125">Aug</text><text class="mono month" x="180" y="125">Sep</text><text class="mono month" x="240" y="125">Oct</text><text class="mono month" x="300" y="125">Nov</text><text class="mono month" x="375" y="125">Dec</text><text class="mono month" x="435" y="125">Jan</text><text class="mono month" x="495" y="125">Feb</text><text class="mono month" x="555" y="125">Mar</text><text class="mono month" x="630" y="125">Apr</text><text class="mono month" x="690" y="125">May</text><text class="mono month" x="765" y="125">Jun</text><text class="mono month" x="825" y="125">Jul</text>
  <g clip-path="url(#panel)"><rect x="60" y="135" width="11" height="11" rx="2.5" fill="#e7edf4"><title>2025-07-13: 0 contributions</title></rect><rect x="60" y="150" width="11" height="11" rx="2.5" fill="#e7edf4"><title>2025-07-14: 0 contributions</title></rect><rect x="60" y="165" width="11" height="11" rx="2.5" fill="#e7edf4"><title>2025-07-15: 0 contributions</title></rect><rect x="60" y="180" width="11" height="11" rx="2.5" fill="#e7edf4"><title>2025-07-16: 0 contributions</title></rect><rect x="60" y="195" width="11" height="11" rx="2.5" fill="#e7edf4"><title>2025-07-17: 0 contributions</title></rect><rect x="60" y="210" width="11" height="11" rx="2.5" fill="#e7edf4"><title>2025-07-18: 0 contributions</title></rect><rect x="60" y="225" width="11" height="11" rx="2.5" fill="#ffd9cb"><title>2025-07-19: 2 contributions</title></rect><rect x="75" y="135" width="11" height="11" rx="2.5" fill="#e7edf4"><title>2025-07-20: 0 contributions</title></rect><rect x="75" y="150" width="11" height="11" rx="2.5" fill="#e7edf4"><title>2025-07-21: 0 contributions</title></rect><rect x="75" y="165" width="11" height="11" rx="2.5" fill="#e7edf4"><title>2025-07-22: 0 contributions</title></rect><rect x="75" y="180" width="11" height="11" rx="2.5" fill="#ffd9cb"><title>2025-07-23: 4 contributions</title></rect><rect x="75" y="195" width="11" height="11" rx="2.5" fill="#ffd9cb"><title>2025-07-24: 3 contributions</title></rect><rect x="75" y="210" width="11" height="11" rx="2.5" fill="#e7edf4"><title>2025-07-25: 0 contributions</title></rect><rect x="75" y="225" width="11" height="11" rx="2.5" fill="#e7edf4"><title>2025-07-26: 0 contributions</title></rect><rect x="90" y="135" width="11" height="11" rx="2.5" fill="#e7edf4"><title>2025-07-27: 0 contributions</title></rect><rect x="90" y="150" width="11" height="11" rx="2.5" fill="#e7edf4"><title>2025-07-28: 0 contributions</title></rect><rect x="90" y="165" width="11" height="11" rx="2.5" fill="#e7edf4"><title>2025-07-29: 0 contributions</title></rect><rect x="90" y="180" width="11" height="11" rx="2.5" fill="#ffd9cb"><title>2025-07-30: 1 contribution</title></rect><rect x="90" y="195" width="11" height="11" rx="2.5" fill="#e7edf4"><title>2025-07-31: 0 contributions</title></rect><rect x="90" y="210" width="11" height="11" rx="2.5" fill="#ffd9cb"><title>2025-08-01: 1 contribution</title></rect><rect x="90" y="225" width="11" height="11" rx="2.5" fill="#e7edf4"><title>2025-08-02: 0 contributions</title></rect><rect x="105" y="135" width="11" height="11" rx="2.5" fill="#e7edf4"><title>2025-08-03: 0 contributions</title></rect><rect x="105" y="150" width="11" height="11" rx="2.5" fill="#e7edf4"><title>2025-08-04: 0 contributions</title></rect><rect x="105" y="165" width="11" height="11" rx="2.5" fill="#e7edf4"><title>2025-08-05: 0 contributions</title></rect><rect x="105" y="180" width="11" height="11" rx="2.5" fill="#e7edf4"><title>2025-08-06: 0 contributions</title></rect><rect x="105" y="195" width="11" height="11" rx="2.5" fill="#e7edf4"><title>2025-08-07: 0 contributions</title></rect><rect x="105" y="210" width="11" height="11" rx="2.5" fill="#e7edf4"><title>2025-08-08: 0 contributions</title></rect><rect x="105" y="225" width="11" height="11" rx="2.5" fill="#e7edf4"><title>2025-08-09: 0 contributions</title></rect><rect x="120" y="135" width="11" height="11" rx="2.5" fill="#e7edf4"><title>2025-08-10: 0 contributions</title></rect><rect x="120" y="150" width="11" height="11" rx="2.5" fill="#e7edf4"><title>2025-08-11: 0 contributions</title></rect><rect x="120" y="165" width="11" height="11" rx="2.5" fill="#e7edf4"><title>2025-08-12: 0 contributions</title></rect><rect x="120" y="180" width="11" height="11" rx="2.5" fill="#e7edf4"><title>2025-08-13: 0 contributions</title></rect><rect x="120" y="195" width="11" height="11" rx="2.5" fill="#e7edf4"><title>2025-08-14: 0 contributions</title></rect><rect x="120" y="210" width="11" height="11" rx="2.5" fill="#e7edf4"><title>2025-08-15: 0 contributions</title></rect><rect x="120" y="225" width="11" height="11" rx="2.5" fill="#e7edf4"><title>2025-08-16: 0 contributions</title></rect><rect x="135" y="135" width="11" height="11" rx="2.5" fill="#e7edf4"><title>2025-08-17: 0 contributions</title></rect><rect x="135" y="150" width="11" height="11" rx="2.5" fill="#e7edf4"><title>2025-08-18: 0 contributions</title></rect><rect x="135" y="165" width="11" height="11" rx="2.5" fill="#e7edf4"><title>2025-08-19: 0 contributions</title></rect><rect x="135" y="180" width="11" height="11" rx="2.5" fill="#e7edf4"><title>2025-08-20: 0 contributions</title></rect><rect x="135" y="195" width="11" height="11" rx="2.5" fill="#e7edf4"><title>2025-08-21: 0 contributions</title></rect><rect x="135" y="210" width="11" height="11" rx="2.5" fill="#e7edf4"><title>2025-08-22: 0 contributions</title></rect><rect x="135" y="225" width="11" height="11" rx="2.5" fill="#e7edf4"><title>2025-08-23: 0 contributions</title></rect><rect x="150" y="135" width="11" height="11" rx="2.5" fill="#e7edf4"><title>2025-08-24: 0 contributions</title></rect><rect x="150" y="150" width="11" height="11" rx="2.5" fill="#e7edf4"><title>2025-08-25: 0 contributions</title></rect><rect x="150" y="165" width="11" height="11" rx="2.5" fill="#e7edf4"><title>2025-08-26: 0 contributions</title></rect><rect x="150" y="180" width="11" height="11" rx="2.5" fill="#e7edf4"><title>2025-08-27: 0 contributions</title></rect><rect x="150" y="195" width="11" height="11" rx="2.5" fill="#e7edf4"><title>2025-08-28: 0 contributions</title></rect><rect x="150" y="210" width="11" height="11" rx="2.5" fill="#e7edf4"><title>2025-08-29: 0 contributions</title></rect><rect x="150" y="225" width="11" height="11" rx="2.5" fill="#e7edf4"><title>2025-08-30: 0 contributions</title></rect><rect x="165" y="135" width="11" height="11" rx="2.5" fill="#e7edf4"><title>2025-08-31: 0 contributions</title></rect><rect x="165" y="150" width="11" height="11" rx="2.5" fill="#e7edf4"><title>2025-09-01: 0 contributions</title></rect><rect x="165" y="165" width="11" height="11" rx="2.5" fill="#e7edf4"><title>2025-09-02: 0 contributions</title></rect><rect x="165" y="180" width="11" height="11" rx="2.5" fill="#e7edf4"><title>2025-09-03: 0 contributions</title></rect><rect x="165" y="195" width="11" height="11" rx="2.5" fill="#e7edf4"><title>2025-09-04: 0 contributions</title></rect><rect x="165" y="210" width="11" height="11" rx="2.5" fill="#e7edf4"><title>2025-09-05: 0 contributions</title></rect><rect x="165" y="225" width="11" height="11" rx="2.5" fill="#e7edf4"><title>2025-09-06: 0 contributions</title></rect><rect x="180" y="135" width="11" height="11" rx="2.5" fill="#e7edf4"><title>2025-09-07: 0 contributions</title></rect><rect x="180" y="150" width="11" height="11" rx="2.5" fill="#e7edf4"><title>2025-09-08: 0 contributions</title></rect><rect x="180" y="165" width="11" height="11" rx="2.5" fill="#e7edf4"><title>2025-09-09: 0 contributions</title></rect><rect x="180" y="180" width="11" height="11" rx="2.5" fill="#e7edf4"><title>2025-09-10: 0 contributions</title></rect><rect x="180" y="195" width="11" height="11" rx="2.5" fill="#e7edf4"><title>2025-09-11: 0 contributions</title></rect><rect x="180" y="210" width="11" height="11" rx="2.5" fill="#e7edf4"><title>2025-09-12: 0 contributions</title></rect><rect x="180" y="225" width="11" height="11" rx="2.5" fill="#e7edf4"><title>2025-09-13: 0 contributions</title></rect><rect x="195" y="135" width="11" height="11" rx="2.5" fill="#e7edf4"><title>2025-09-14: 0 contributions</title></rect><rect x="195" y="150" width="11" height="11" rx="2.5" fill="#e7edf4"><title>2025-09-15: 0 contributions</title></rect><rect x="195" y="165" width="11" height="11" rx="2.5" fill="#e7edf4"><title>2025-09-16: 0 contributions</title></rect><rect x="195" y="180" width="11" height="11" rx="2.5" fill="#e7edf4"><title>2025-09-17: 0 contributions</title></rect><rect x="195" y="195" width="11" height="11" rx="2.5" fill="#e7edf4"><title>2025-09-18: 0 contributions</title></rect><rect x="195" y="210" width="11" height="11" rx="2.5" fill="#e7edf4"><title>2025-09-19: 0 contributions</title></rect><rect x="195" y="225" width="11" height="11" rx="2.5" fill="#e7edf4"><title>2025-09-20: 0 contributions</title></rect><rect x="210" y="135" width="11" height="11" rx="2.5" fill="#e7edf4"><title>2025-09-21: 0 contributions</title></rect><rect x="210" y="150" width="11" height="11" rx="2.5" fill="#e7edf4"><title>2025-09-22: 0 contributions</title></rect><rect x="210" y="165" width="11" height="11" rx="2.5" fill="#e7edf4"><title>2025-09-23: 0 contributions</title></rect><rect x="210" y="180" width="11" height="11" rx="2.5" fill="#e7edf4"><title>2025-09-24: 0 contributions</title></rect><rect x="210" y="195" width="11" height="11" rx="2.5" fill="#e7edf4"><title>2025-09-25: 0 contributions</title></rect><rect x="210" y="210" width="11" height="11" rx="2.5" fill="#e7edf4"><title>2025-09-26: 0 contributions</title></rect><rect x="210" y="225" width="11" height="11" rx="2.5" fill="#e7edf4"><title>2025-09-27: 0 contributions</title></rect><rect x="225" y="135" width="11" height="11" rx="2.5" fill="#e7edf4"><title>2025-09-28: 0 contributions</title></rect><rect x="225" y="150" width="11" height="11" rx="2.5" fill="#e7edf4"><title>2025-09-29: 0 contributions</title></rect><rect x="225" y="165" width="11" height="11" rx="2.5" fill="#e7edf4"><title>2025-09-30: 0 contributions</title></rect><rect x="225" y="180" width="11" height="11" rx="2.5" fill="#e7edf4"><title>2025-10-01: 0 contributions</title></rect><rect x="225" y="195" width="11" height="11" rx="2.5" fill="#e7edf4"><title>2025-10-02: 0 contributions</title></rect><rect x="225" y="210" width="11" height="11" rx="2.5" fill="#e7edf4"><title>2025-10-03: 0 contributions</title></rect><rect x="225" y="225" width="11" height="11" rx="2.5" fill="#e7edf4"><title>2025-10-04: 0 contributions</title></rect><rect x="240" y="135" width="11" height="11" rx="2.5" fill="#e7edf4"><title>2025-10-05: 0 contributions</title></rect><rect x="240" y="150" width="11" height="11" rx="2.5" fill="#e7edf4"><title>2025-10-06: 0 contributions</title></rect><rect x="240" y="165" width="11" height="11" rx="2.5" fill="#e7edf4"><title>2025-10-07: 0 contributions</title></rect><rect x="240" y="180" width="11" height="11" rx="2.5" fill="#e7edf4"><title>2025-10-08: 0 contributions</title></rect><rect x="240" y="195" width="11" height="11" rx="2.5" fill="#e7edf4"><title>2025-10-09: 0 contributions</title></rect><rect x="240" y="210" width="11" height="11" rx="2.5" fill="#e7edf4"><title>2025-10-10: 0 contributions</title></rect><rect x="240" y="225" width="11" height="11" rx="2.5" fill="#e7edf4"><title>2025-10-11: 0 contributions</title></rect><rect x="255" y="135" width="11" height="11" rx="2.5" fill="#e7edf4"><title>2025-10-12: 0 contributions</title></rect><rect x="255" y="150" width="11" height="11" rx="2.5" fill="#e7edf4"><title>2025-10-13: 0 contributions</title></rect><rect x="255" y="165" width="11" height="11" rx="2.5" fill="#e7edf4"><title>2025-10-14: 0 contributions</title></rect><rect x="255" y="180" width="11" height="11" rx="2.5" fill="#e7edf4"><title>2025-10-15: 0 contributions</title></rect><rect x="255" y="195" width="11" height="11" rx="2.5" fill="#e7edf4"><title>2025-10-16: 0 contributions</title></rect><rect x="255" y="210" width="11" height="11" rx="2.5" fill="#e7edf4"><title>2025-10-17: 0 contributions</title></rect><rect x="255" y="225" width="11" height="11" rx="2.5" fill="#e7edf4"><title>2025-10-18: 0 contributions</title></rect><rect x="270" y="135" width="11" height="11" rx="2.5" fill="#e7edf4"><title>2025-10-19: 0 contributions</title></rect><rect x="270" y="150" width="11" height="11" rx="2.5" fill="#e7edf4"><title>2025-10-20: 0 contributions</title></rect><rect x="270" y="165" width="11" height="11" rx="2.5" fill="#e7edf4"><title>2025-10-21: 0 contributions</title></rect><rect x="270" y="180" width="11" height="11" rx="2.5" fill="#e7edf4"><title>2025-10-22: 0 contributions</title></rect><rect x="270" y="195" width="11" height="11" rx="2.5" fill="#e7edf4"><title>2025-10-23: 0 contributions</title></rect><rect x="270" y="210" width="11" height="11" rx="2.5" fill="#e7edf4"><title>2025-10-24: 0 contributions</title></rect><rect x="270" y="225" width="11" height="11" rx="2.5" fill="#e7edf4"><title>2025-10-25: 0 contributions</title></rect><rect x="285" y="135" width="11" height="11" rx="2.5" fill="#e7edf4"><title>2025-10-26: 0 contributions</title></rect><rect x="285" y="150" width="11" height="11" rx="2.5" fill="#e7edf4"><title>2025-10-27: 0 contributions</title></rect><rect x="285" y="165" width="11" height="11" rx="2.5" fill="#e7edf4"><title>2025-10-28: 0 contributions</title></rect><rect x="285" y="180" width="11" height="11" rx="2.5" fill="#e7edf4"><title>2025-10-29: 0 contributions</title></rect><rect x="285" y="195" width="11" height="11" rx="2.5" fill="#e7edf4"><title>2025-10-30: 0 contributions</title></rect><rect x="285" y="210" width="11" height="11" rx="2.5" fill="#e7edf4"><title>2025-10-31: 0 contributions</title></rect><rect x="285" y="225" width="11" height="11" rx="2.5" fill="#e7edf4"><title>2025-11-01: 0 contributions</title></rect><rect x="300" y="135" width="11" height="11" rx="2.5" fill="#e7edf4"><title>2025-11-02: 0 contributions</title></rect><rect x="300" y="150" width="11" height="11" rx="2.5" fill="#e7edf4"><title>2025-11-03: 0 contributions</title></rect><rect x="300" y="165" width="11" height="11" rx="2.5" fill="#e7edf4"><title>2025-11-04: 0 contributions</title></rect><rect x="300" y="180" width="11" height="11" rx="2.5" fill="#e7edf4"><title>2025-11-05: 0 contributions</title></rect><rect x="300" y="195" width="11" height="11" rx="2.5" fill="#e7edf4"><title>2025-11-06: 0 contributions</title></rect><rect x="300" y="210" width="11" height="11" rx="2.5" fill="#e7edf4"><title>2025-11-07: 0 contributions</title></rect><rect x="300" y="225" width="11" height="11" rx="2.5" fill="#e7edf4"><title>2025-11-08: 0 contributions</title></rect><rect x="315" y="135" width="11" height="11" rx="2.5" fill="#e7edf4"><title>2025-11-09: 0 contributions</title></rect><rect x="315" y="150" width="11" height="11" rx="2.5" fill="#e7edf4"><title>2025-11-10: 0 contributions</title></rect><rect x="315" y="165" width="11" height="11" rx="2.5" fill="#e7edf4"><title>2025-11-11: 0 contributions</title></rect><rect x="315" y="180" width="11" height="11" rx="2.5" fill="#e7edf4"><title>2025-11-12: 0 contributions</title></rect><rect x="315" y="195" width="11" height="11" rx="2.5" fill="#e7edf4"><title>2025-11-13: 0 contributions</title></rect><rect x="315" y="210" width="11" height="11" rx="2.5" fill="#e7edf4"><title>2025-11-14: 0 contributions</title></rect><rect x="315" y="225" width="11" height="11" rx="2.5" fill="#e7edf4"><title>2025-11-15: 0 contributions</title></rect><rect x="330" y="135" width="11" height="11" rx="2.5" fill="#e7edf4"><title>2025-11-16: 0 contributions</title></rect><rect x="330" y="150" width="11" height="11" rx="2.5" fill="#e7edf4"><title>2025-11-17: 0 contributions</title></rect><rect x="330" y="165" width="11" height="11" rx="2.5" fill="#e7edf4"><title>2025-11-18: 0 contributions</title></rect><rect x="330" y="180" width="11" height="11" rx="2.5" fill="#e7edf4"><title>2025-11-19: 0 contributions</title></rect><rect x="330" y="195" width="11" height="11" rx="2.5" fill="#e7edf4"><title>2025-11-20: 0 contributions</title></rect><rect x="330" y="210" width="11" height="11" rx="2.5" fill="#e7edf4"><title>2025-11-21: 0 contributions</title></rect><rect x="330" y="225" width="11" height="11" rx="2.5" fill="#e7edf4"><title>2025-11-22: 0 contributions</title></rect><rect x="345" y="135" width="11" height="11" rx="2.5" fill="#e7edf4"><title>2025-11-23: 0 contributions</title></rect><rect x="345" y="150" width="11" height="11" rx="2.5" fill="#e7edf4"><title>2025-11-24: 0 contributions</title></rect><rect x="345" y="165" width="11" height="11" rx="2.5" fill="#e7edf4"><title>2025-11-25: 0 contributions</title></rect><rect x="345" y="180" width="11" height="11" rx="2.5" fill="#e7edf4"><title>2025-11-26: 0 contributions</title></rect><rect x="345" y="195" width="11" height="11" rx="2.5" fill="#e7edf4"><title>2025-11-27: 0 contributions</title></rect><rect x="345" y="210" width="11" height="11" rx="2.5" fill="#e7edf4"><title>2025-11-28: 0 contributions</title></rect><rect x="345" y="225" width="11" height="11" rx="2.5" fill="#e7edf4"><title>2025-11-29: 0 contributions</title></rect><rect x="360" y="135" width="11" height="11" rx="2.5" fill="#e7edf4"><title>2025-11-30: 0 contributions</title></rect><rect x="360" y="150" width="11" height="11" rx="2.5" fill="#e7edf4"><title>2025-12-01: 0 contributions</title></rect><rect x="360" y="165" width="11" height="11" rx="2.5" fill="#e7edf4"><title>2025-12-02: 0 contributions</title></rect><rect x="360" y="180" width="11" height="11" rx="2.5" fill="#e7edf4"><title>2025-12-03: 0 contributions</title></rect><rect x="360" y="195" width="11" height="11" rx="2.5" fill="#e7edf4"><title>2025-12-04: 0 contributions</title></rect><rect x="360" y="210" width="11" height="11" rx="2.5" fill="#e7edf4"><title>2025-12-05: 0 contributions</title></rect><rect x="360" y="225" width="11" height="11" rx="2.5" fill="#e7edf4"><title>2025-12-06: 0 contributions</title></rect><rect x="375" y="135" width="11" height="11" rx="2.5" fill="#e7edf4"><title>2025-12-07: 0 contributions</title></rect><rect x="375" y="150" width="11" height="11" rx="2.5" fill="#e7edf4"><title>2025-12-08: 0 contributions</title></rect><rect x="375" y="165" width="11" height="11" rx="2.5" fill="#e7edf4"><title>2025-12-09: 0 contributions</title></rect><rect x="375" y="180" width="11" height="11" rx="2.5" fill="#e7edf4"><title>2025-12-10: 0 contributions</title></rect><rect x="375" y="195" width="11" height="11" rx="2.5" fill="#e7edf4"><title>2025-12-11: 0 contributions</title></rect><rect x="375" y="210" width="11" height="11" rx="2.5" fill="#e7edf4"><title>2025-12-12: 0 contributions</title></rect><rect x="375" y="225" width="11" height="11" rx="2.5" fill="#e7edf4"><title>2025-12-13: 0 contributions</title></rect><rect x="390" y="135" width="11" height="11" rx="2.5" fill="#e7edf4"><title>2025-12-14: 0 contributions</title></rect><rect x="390" y="150" width="11" height="11" rx="2.5" fill="#e7edf4"><title>2025-12-15: 0 contributions</title></rect><rect x="390" y="165" width="11" height="11" rx="2.5" fill="#e7edf4"><title>2025-12-16: 0 contributions</title></rect><rect x="390" y="180" width="11" height="11" rx="2.5" fill="#e7edf4"><title>2025-12-17: 0 contributions</title></rect><rect x="390" y="195" width="11" height="11" rx="2.5" fill="#e7edf4"><title>2025-12-18: 0 contributions</title></rect><rect x="390" y="210" width="11" height="11" rx="2.5" fill="#e7edf4"><title>2025-12-19: 0 contributions</title></rect><rect x="390" y="225" width="11" height="11" rx="2.5" fill="#e7edf4"><title>2025-12-20: 0 contributions</title></rect><rect x="405" y="135" width="11" height="11" rx="2.5" fill="#e7edf4"><title>2025-12-21: 0 contributions</title></rect><rect x="405" y="150" width="11" height="11" rx="2.5" fill="#e7edf4"><title>2025-12-22: 0 contributions</title></rect><rect x="405" y="165" width="11" height="11" rx="2.5" fill="#e7edf4"><title>2025-12-23: 0 contributions</title></rect><rect x="405" y="180" width="11" height="11" rx="2.5" fill="#e7edf4"><title>2025-12-24: 0 contributions</title></rect><rect x="405" y="195" width="11" height="11" rx="2.5" fill="#e7edf4"><title>2025-12-25: 0 contributions</title></rect><rect x="405" y="210" width="11" height="11" rx="2.5" fill="#e7edf4"><title>2025-12-26: 0 contributions</title></rect><rect x="405" y="225" width="11" height="11" rx="2.5" fill="#e7edf4"><title>2025-12-27: 0 contributions</title></rect><rect x="420" y="135" width="11" height="11" rx="2.5" fill="#e7edf4"><title>2025-12-28: 0 contributions</title></rect><rect x="420" y="150" width="11" height="11" rx="2.5" fill="#e7edf4"><title>2025-12-29: 0 contributions</title></rect><rect x="420" y="165" width="11" height="11" rx="2.5" fill="#e7edf4"><title>2025-12-30: 0 contributions</title></rect><rect x="420" y="180" width="11" height="11" rx="2.5" fill="#e7edf4"><title>2025-12-31: 0 contributions</title></rect><rect x="420" y="195" width="11" height="11" rx="2.5" fill="#e7edf4"><title>2026-01-01: 0 contributions</title></rect><rect x="420" y="210" width="11" height="11" rx="2.5" fill="#e7edf4"><title>2026-01-02: 0 contributions</title></rect><rect x="420" y="225" width="11" height="11" rx="2.5" fill="#e7edf4"><title>2026-01-03: 0 contributions</title></rect><rect x="435" y="135" width="11" height="11" rx="2.5" fill="#e7edf4"><title>2026-01-04: 0 contributions</title></rect><rect x="435" y="150" width="11" height="11" rx="2.5" fill="#e7edf4"><title>2026-01-05: 0 contributions</title></rect><rect x="435" y="165" width="11" height="11" rx="2.5" fill="#e7edf4"><title>2026-01-06: 0 contributions</title></rect><rect x="435" y="180" width="11" height="11" rx="2.5" fill="#e7edf4"><title>2026-01-07: 0 contributions</title></rect><rect x="435" y="195" width="11" height="11" rx="2.5" fill="#e7edf4"><title>2026-01-08: 0 contributions</title></rect><rect x="435" y="210" width="11" height="11" rx="2.5" fill="#e7edf4"><title>2026-01-09: 0 contributions</title></rect><rect x="435" y="225" width="11" height="11" rx="2.5" fill="#e7edf4"><title>2026-01-10: 0 contributions</title></rect><rect x="450" y="135" width="11" height="11" rx="2.5" fill="#e7edf4"><title>2026-01-11: 0 contributions</title></rect><rect x="450" y="150" width="11" height="11" rx="2.5" fill="#e7edf4"><title>2026-01-12: 0 contributions</title></rect><rect x="450" y="165" width="11" height="11" rx="2.5" fill="#e7edf4"><title>2026-01-13: 0 contributions</title></rect><rect x="450" y="180" width="11" height="11" rx="2.5" fill="#e7edf4"><title>2026-01-14: 0 contributions</title></rect><rect x="450" y="195" width="11" height="11" rx="2.5" fill="#e7edf4"><title>2026-01-15: 0 contributions</title></rect><rect x="450" y="210" width="11" height="11" rx="2.5" fill="#e7edf4"><title>2026-01-16: 0 contributions</title></rect><rect x="450" y="225" width="11" height="11" rx="2.5" fill="#e7edf4"><title>2026-01-17: 0 contributions</title></rect><rect x="465" y="135" width="11" height="11" rx="2.5" fill="#e7edf4"><title>2026-01-18: 0 contributions</title></rect><rect x="465" y="150" width="11" height="11" rx="2.5" fill="#e7edf4"><title>2026-01-19: 0 contributions</title></rect><rect x="465" y="165" width="11" height="11" rx="2.5" fill="#e7edf4"><title>2026-01-20: 0 contributions</title></rect><rect x="465" y="180" width="11" height="11" rx="2.5" fill="#e7edf4"><title>2026-01-21: 0 contributions</title></rect><rect x="465" y="195" width="11" height="11" rx="2.5" fill="#e7edf4"><title>2026-01-22: 0 contributions</title></rect><rect x="465" y="210" width="11" height="11" rx="2.5" fill="#e7edf4"><title>2026-01-23: 0 contributions</title></rect><rect x="465" y="225" width="11" height="11" rx="2.5" fill="#e7edf4"><title>2026-01-24: 0 contributions</title></rect><rect x="480" y="135" width="11" height="11" rx="2.5" fill="#e7edf4"><title>2026-01-25: 0 contributions</title></rect><rect x="480" y="150" width="11" height="11" rx="2.5" fill="#e7edf4"><title>2026-01-26: 0 contributions</title></rect><rect x="480" y="165" width="11" height="11" rx="2.5" fill="#e7edf4"><title>2026-01-27: 0 contributions</title></rect><rect x="480" y="180" width="11" height="11" rx="2.5" fill="#e7edf4"><title>2026-01-28: 0 contributions</title></rect><rect x="480" y="195" width="11" height="11" rx="2.5" fill="#e7edf4"><title>2026-01-29: 0 contributions</title></rect><rect x="480" y="210" width="11" height="11" rx="2.5" fill="#e7edf4"><title>2026-01-30: 0 contributions</title></rect><rect x="480" y="225" width="11" height="11" rx="2.5" fill="#e7edf4"><title>2026-01-31: 0 contributions</title></rect><rect x="495" y="135" width="11" height="11" rx="2.5" fill="#e7edf4"><title>2026-02-01: 0 contributions</title></rect><rect x="495" y="150" width="11" height="11" rx="2.5" fill="#e7edf4"><title>2026-02-02: 0 contributions</title></rect><rect x="495" y="165" width="11" height="11" rx="2.5" fill="#ffd9cb"><title>2026-02-03: 1 contribution</title></rect><rect x="495" y="180" width="11" height="11" rx="2.5" fill="#e7edf4"><title>2026-02-04: 0 contributions</title></rect><rect x="495" y="195" width="11" height="11" rx="2.5" fill="#e7edf4"><title>2026-02-05: 0 contributions</title></rect><rect x="495" y="210" width="11" height="11" rx="2.5" fill="#e7edf4"><title>2026-02-06: 0 contributions</title></rect><rect x="495" y="225" width="11" height="11" rx="2.5" fill="#e7edf4"><title>2026-02-07: 0 contributions</title></rect><rect x="510" y="135" width="11" height="11" rx="2.5" fill="#e7edf4"><title>2026-02-08: 0 contributions</title></rect><rect x="510" y="150" width="11" height="11" rx="2.5" fill="#e7edf4"><title>2026-02-09: 0 contributions</title></rect><rect x="510" y="165" width="11" height="11" rx="2.5" fill="#e7edf4"><title>2026-02-10: 0 contributions</title></rect><rect x="510" y="180" width="11" height="11" rx="2.5" fill="#e7edf4"><title>2026-02-11: 0 contributions</title></rect><rect x="510" y="195" width="11" height="11" rx="2.5" fill="#e7edf4"><title>2026-02-12: 0 contributions</title></rect><rect x="510" y="210" width="11" height="11" rx="2.5" fill="#e7edf4"><title>2026-02-13: 0 contributions</title></rect><rect x="510" y="225" width="11" height="11" rx="2.5" fill="#e7edf4"><title>2026-02-14: 0 contributions</title></rect><rect x="525" y="135" width="11" height="11" rx="2.5" fill="#e7edf4"><title>2026-02-15: 0 contributions</title></rect><rect x="525" y="150" width="11" height="11" rx="2.5" fill="#e7edf4"><title>2026-02-16: 0 contributions</title></rect><rect x="525" y="165" width="11" height="11" rx="2.5" fill="#e7edf4"><title>2026-02-17: 0 contributions</title></rect><rect x="525" y="180" width="11" height="11" rx="2.5" fill="#e7edf4"><title>2026-02-18: 0 contributions</title></rect><rect x="525" y="195" width="11" height="11" rx="2.5" fill="#e7edf4"><title>2026-02-19: 0 contributions</title></rect><rect x="525" y="210" width="11" height="11" rx="2.5" fill="#e7edf4"><title>2026-02-20: 0 contributions</title></rect><rect x="525" y="225" width="11" height="11" rx="2.5" fill="#ff9472"><title>2026-02-21: 22 contributions</title></rect><rect x="540" y="135" width="11" height="11" rx="2.5" fill="#e7edf4"><title>2026-02-22: 0 contributions</title></rect><rect x="540" y="150" width="11" height="11" rx="2.5" fill="#ffd9cb"><title>2026-02-23: 3 contributions</title></rect><rect x="540" y="165" width="11" height="11" rx="2.5" fill="#e7edf4"><title>2026-02-24: 0 contributions</title></rect><rect x="540" y="180" width="11" height="11" rx="2.5" fill="#e7edf4"><title>2026-02-25: 0 contributions</title></rect><rect x="540" y="195" width="11" height="11" rx="2.5" fill="#e7edf4"><title>2026-02-26: 0 contributions</title></rect><rect x="540" y="210" width="11" height="11" rx="2.5" fill="#e7edf4"><title>2026-02-27: 0 contributions</title></rect><rect x="540" y="225" width="11" height="11" rx="2.5" fill="#e7edf4"><title>2026-02-28: 0 contributions</title></rect><rect x="555" y="135" width="11" height="11" rx="2.5" fill="#ffd9cb"><title>2026-03-01: 8 contributions</title></rect><rect x="555" y="150" width="11" height="11" rx="2.5" fill="#ffd9cb"><title>2026-03-02: 3 contributions</title></rect><rect x="555" y="165" width="11" height="11" rx="2.5" fill="#ffd9cb"><title>2026-03-03: 1 contribution</title></rect><rect x="555" y="180" width="11" height="11" rx="2.5" fill="#e7edf4"><title>2026-03-04: 0 contributions</title></rect><rect x="555" y="195" width="11" height="11" rx="2.5" fill="#e7edf4"><title>2026-03-05: 0 contributions</title></rect><rect x="555" y="210" width="11" height="11" rx="2.5" fill="#e7edf4"><title>2026-03-06: 0 contributions</title></rect><rect x="555" y="225" width="11" height="11" rx="2.5" fill="#ffd9cb"><title>2026-03-07: 7 contributions</title></rect><rect x="570" y="135" width="11" height="11" rx="2.5" fill="#ffd9cb"><title>2026-03-08: 7 contributions</title></rect><rect x="570" y="150" width="11" height="11" rx="2.5" fill="#e7edf4"><title>2026-03-09: 0 contributions</title></rect><rect x="570" y="165" width="11" height="11" rx="2.5" fill="#e7edf4"><title>2026-03-10: 0 contributions</title></rect><rect x="570" y="180" width="11" height="11" rx="2.5" fill="#e7edf4"><title>2026-03-11: 0 contributions</title></rect><rect x="570" y="195" width="11" height="11" rx="2.5" fill="#e7edf4"><title>2026-03-12: 0 contributions</title></rect><rect x="570" y="210" width="11" height="11" rx="2.5" fill="#e7edf4"><title>2026-03-13: 0 contributions</title></rect><rect x="570" y="225" width="11" height="11" rx="2.5" fill="#e7edf4"><title>2026-03-14: 0 contributions</title></rect><rect x="585" y="135" width="11" height="11" rx="2.5" fill="#e7edf4"><title>2026-03-15: 0 contributions</title></rect><rect x="585" y="150" width="11" height="11" rx="2.5" fill="#e7edf4"><title>2026-03-16: 0 contributions</title></rect><rect x="585" y="165" width="11" height="11" rx="2.5" fill="#e7edf4"><title>2026-03-17: 0 contributions</title></rect><rect x="585" y="180" width="11" height="11" rx="2.5" fill="#e7edf4"><title>2026-03-18: 0 contributions</title></rect><rect x="585" y="195" width="11" height="11" rx="2.5" fill="#e7edf4"><title>2026-03-19: 0 contributions</title></rect><rect x="585" y="210" width="11" height="11" rx="2.5" fill="#e7edf4"><title>2026-03-20: 0 contributions</title></rect><rect x="585" y="225" width="11" height="11" rx="2.5" fill="#e7edf4"><title>2026-03-21: 0 contributions</title></rect><rect x="600" y="135" width="11" height="11" rx="2.5" fill="#e7edf4"><title>2026-03-22: 0 contributions</title></rect><rect x="600" y="150" width="11" height="11" rx="2.5" fill="#e7edf4"><title>2026-03-23: 0 contributions</title></rect><rect x="600" y="165" width="11" height="11" rx="2.5" fill="#e7edf4"><title>2026-03-24: 0 contributions</title></rect><rect x="600" y="180" width="11" height="11" rx="2.5" fill="#e7edf4"><title>2026-03-25: 0 contributions</title></rect><rect x="600" y="195" width="11" height="11" rx="2.5" fill="#e7edf4"><title>2026-03-26: 0 contributions</title></rect><rect x="600" y="210" width="11" height="11" rx="2.5" fill="#e7edf4"><title>2026-03-27: 0 contributions</title></rect><rect x="600" y="225" width="11" height="11" rx="2.5" fill="#e7edf4"><title>2026-03-28: 0 contributions</title></rect><rect x="615" y="135" width="11" height="11" rx="2.5" fill="#e7edf4"><title>2026-03-29: 0 contributions</title></rect><rect x="615" y="150" width="11" height="11" rx="2.5" fill="#e7edf4"><title>2026-03-30: 0 contributions</title></rect><rect x="615" y="165" width="11" height="11" rx="2.5" fill="#e7edf4"><title>2026-03-31: 0 contributions</title></rect><rect x="615" y="180" width="11" height="11" rx="2.5" fill="#e7edf4"><title>2026-04-01: 0 contributions</title></rect><rect x="615" y="195" width="11" height="11" rx="2.5" fill="#e7edf4"><title>2026-04-02: 0 contributions</title></rect><rect x="615" y="210" width="11" height="11" rx="2.5" fill="#e7edf4"><title>2026-04-03: 0 contributions</title></rect><rect x="615" y="225" width="11" height="11" rx="2.5" fill="#e7edf4"><title>2026-04-04: 0 contributions</title></rect><rect x="630" y="135" width="11" height="11" rx="2.5" fill="#e7edf4"><title>2026-04-05: 0 contributions</title></rect><rect x="630" y="150" width="11" height="11" rx="2.5" fill="#e7edf4"><title>2026-04-06: 0 contributions</title></rect><rect x="630" y="165" width="11" height="11" rx="2.5" fill="#e7edf4"><title>2026-04-07: 0 contributions</title></rect><rect x="630" y="180" width="11" height="11" rx="2.5" fill="#e7edf4"><title>2026-04-08: 0 contributions</title></rect><rect x="630" y="195" width="11" height="11" rx="2.5" fill="#e7edf4"><title>2026-04-09: 0 contributions</title></rect><rect x="630" y="210" width="11" height="11" rx="2.5" fill="#e7edf4"><title>2026-04-10: 0 contributions</title></rect><rect x="630" y="225" width="11" height="11" rx="2.5" fill="#e7edf4"><title>2026-04-11: 0 contributions</title></rect><rect x="645" y="135" width="11" height="11" rx="2.5" fill="#e7edf4"><title>2026-04-12: 0 contributions</title></rect><rect x="645" y="150" width="11" height="11" rx="2.5" fill="#e7edf4"><title>2026-04-13: 0 contributions</title></rect><rect x="645" y="165" width="11" height="11" rx="2.5" fill="#e7edf4"><title>2026-04-14: 0 contributions</title></rect><rect x="645" y="180" width="11" height="11" rx="2.5" fill="#e7edf4"><title>2026-04-15: 0 contributions</title></rect><rect x="645" y="195" width="11" height="11" rx="2.5" fill="#e7edf4"><title>2026-04-16: 0 contributions</title></rect><rect x="645" y="210" width="11" height="11" rx="2.5" fill="#e7edf4"><title>2026-04-17: 0 contributions</title></rect><rect x="645" y="225" width="11" height="11" rx="2.5" fill="#e7edf4"><title>2026-04-18: 0 contributions</title></rect><rect x="660" y="135" width="11" height="11" rx="2.5" fill="#e7edf4"><title>2026-04-19: 0 contributions</title></rect><rect x="660" y="150" width="11" height="11" rx="2.5" fill="#e7edf4"><title>2026-04-20: 0 contributions</title></rect><rect x="660" y="165" width="11" height="11" rx="2.5" fill="#e7edf4"><title>2026-04-21: 0 contributions</title></rect><rect x="660" y="180" width="11" height="11" rx="2.5" fill="#e7edf4"><title>2026-04-22: 0 contributions</title></rect><rect x="660" y="195" width="11" height="11" rx="2.5" fill="#e7edf4"><title>2026-04-23: 0 contributions</title></rect><rect x="660" y="210" width="11" height="11" rx="2.5" fill="#e7edf4"><title>2026-04-24: 0 contributions</title></rect><rect x="660" y="225" width="11" height="11" rx="2.5" fill="#e7edf4"><title>2026-04-25: 0 contributions</title></rect><rect x="675" y="135" width="11" height="11" rx="2.5" fill="#ffd9cb"><title>2026-04-26: 7 contributions</title></rect><rect x="675" y="150" width="11" height="11" rx="2.5" fill="#ffd9cb"><title>2026-04-27: 3 contributions</title></rect><rect x="675" y="165" width="11" height="11" rx="2.5" fill="#ffd9cb"><title>2026-04-28: 1 contribution</title></rect><rect x="675" y="180" width="11" height="11" rx="2.5" fill="#ffd9cb"><title>2026-04-29: 7 contributions</title></rect><rect x="675" y="195" width="11" height="11" rx="2.5" fill="#ffd9cb"><title>2026-04-30: 2 contributions</title></rect><rect x="675" y="210" width="11" height="11" rx="2.5" fill="#ff6f47"><title>2026-05-01: 53 contributions</title></rect><rect x="675" y="225" width="11" height="11" rx="2.5" fill="#ffb99f"><title>2026-05-02: 12 contributions</title></rect><rect x="690" y="135" width="11" height="11" rx="2.5" fill="#ff6f47"><title>2026-05-03: 35 contributions</title></rect><rect x="690" y="150" width="11" height="11" rx="2.5" fill="#ffd9cb"><title>2026-05-04: 1 contribution</title></rect><rect x="690" y="165" width="11" height="11" rx="2.5" fill="#e7edf4"><title>2026-05-05: 0 contributions</title></rect><rect x="690" y="180" width="11" height="11" rx="2.5" fill="#ff9472"><title>2026-05-06: 26 contributions</title></rect><rect x="690" y="195" width="11" height="11" rx="2.5" fill="#e7edf4"><title>2026-05-07: 0 contributions</title></rect><rect x="690" y="210" width="11" height="11" rx="2.5" fill="#ffd9cb"><title>2026-05-08: 2 contributions</title></rect><rect x="690" y="225" width="11" height="11" rx="2.5" fill="#ffd9cb"><title>2026-05-09: 7 contributions</title></rect><rect x="705" y="135" width="11" height="11" rx="2.5" fill="#ffd9cb"><title>2026-05-10: 2 contributions</title></rect><rect x="705" y="150" width="11" height="11" rx="2.5" fill="#e7edf4"><title>2026-05-11: 0 contributions</title></rect><rect x="705" y="165" width="11" height="11" rx="2.5" fill="#e7edf4"><title>2026-05-12: 0 contributions</title></rect><rect x="705" y="180" width="11" height="11" rx="2.5" fill="#e7edf4"><title>2026-05-13: 0 contributions</title></rect><rect x="705" y="195" width="11" height="11" rx="2.5" fill="#e7edf4"><title>2026-05-14: 0 contributions</title></rect><rect x="705" y="210" width="11" height="11" rx="2.5" fill="#e7edf4"><title>2026-05-15: 0 contributions</title></rect><rect x="705" y="225" width="11" height="11" rx="2.5" fill="#e7edf4"><title>2026-05-16: 0 contributions</title></rect><rect x="720" y="135" width="11" height="11" rx="2.5" fill="#e7edf4"><title>2026-05-17: 0 contributions</title></rect><rect x="720" y="150" width="11" height="11" rx="2.5" fill="#e7edf4"><title>2026-05-18: 0 contributions</title></rect><rect x="720" y="165" width="11" height="11" rx="2.5" fill="#e7edf4"><title>2026-05-19: 0 contributions</title></rect><rect x="720" y="180" width="11" height="11" rx="2.5" fill="#e7edf4"><title>2026-05-20: 0 contributions</title></rect><rect x="720" y="195" width="11" height="11" rx="2.5" fill="#e7edf4"><title>2026-05-21: 0 contributions</title></rect><rect x="720" y="210" width="11" height="11" rx="2.5" fill="#e7edf4"><title>2026-05-22: 0 contributions</title></rect><rect x="720" y="225" width="11" height="11" rx="2.5" fill="#e7edf4"><title>2026-05-23: 0 contributions</title></rect><rect x="735" y="135" width="11" height="11" rx="2.5" fill="#e7edf4"><title>2026-05-24: 0 contributions</title></rect><rect x="735" y="150" width="11" height="11" rx="2.5" fill="#e7edf4"><title>2026-05-25: 0 contributions</title></rect><rect x="735" y="165" width="11" height="11" rx="2.5" fill="#ff6f47"><title>2026-05-26: 31 contributions</title></rect><rect x="735" y="180" width="11" height="11" rx="2.5" fill="#ffd9cb"><title>2026-05-27: 7 contributions</title></rect><rect x="735" y="195" width="11" height="11" rx="2.5" fill="#ffb99f"><title>2026-05-28: 10 contributions</title></rect><rect x="735" y="210" width="11" height="11" rx="2.5" fill="#ff9472"><title>2026-05-29: 20 contributions</title></rect><rect x="735" y="225" width="11" height="11" rx="2.5" fill="#e7edf4"><title>2026-05-30: 0 contributions</title></rect><rect x="750" y="135" width="11" height="11" rx="2.5" fill="#ffd9cb"><title>2026-05-31: 7 contributions</title></rect><rect x="750" y="150" width="11" height="11" rx="2.5" fill="#e7edf4"><title>2026-06-01: 0 contributions</title></rect><rect x="750" y="165" width="11" height="11" rx="2.5" fill="#e7edf4"><title>2026-06-02: 0 contributions</title></rect><rect x="750" y="180" width="11" height="11" rx="2.5" fill="#e7edf4"><title>2026-06-03: 0 contributions</title></rect><rect x="750" y="195" width="11" height="11" rx="2.5" fill="#e7edf4"><title>2026-06-04: 0 contributions</title></rect><rect x="750" y="210" width="11" height="11" rx="2.5" fill="#e7edf4"><title>2026-06-05: 0 contributions</title></rect><rect x="750" y="225" width="11" height="11" rx="2.5" fill="#e7edf4"><title>2026-06-06: 0 contributions</title></rect><rect x="765" y="135" width="11" height="11" rx="2.5" fill="#e7edf4"><title>2026-06-07: 0 contributions</title></rect><rect x="765" y="150" width="11" height="11" rx="2.5" fill="#e7edf4"><title>2026-06-08: 0 contributions</title></rect><rect x="765" y="165" width="11" height="11" rx="2.5" fill="#e7edf4"><title>2026-06-09: 0 contributions</title></rect><rect x="765" y="180" width="11" height="11" rx="2.5" fill="#e7edf4"><title>2026-06-10: 0 contributions</title></rect><rect x="765" y="195" width="11" height="11" rx="2.5" fill="#e7edf4"><title>2026-06-11: 0 contributions</title></rect><rect x="765" y="210" width="11" height="11" rx="2.5" fill="#e7edf4"><title>2026-06-12: 0 contributions</title></rect><rect x="765" y="225" width="11" height="11" rx="2.5" fill="#e7edf4"><title>2026-06-13: 0 contributions</title></rect><rect x="780" y="135" width="11" height="11" rx="2.5" fill="#e7edf4"><title>2026-06-14: 0 contributions</title></rect><rect x="780" y="150" width="11" height="11" rx="2.5" fill="#e7edf4"><title>2026-06-15: 0 contributions</title></rect><rect x="780" y="165" width="11" height="11" rx="2.5" fill="#e7edf4"><title>2026-06-16: 0 contributions</title></rect><rect x="780" y="180" width="11" height="11" rx="2.5" fill="#e7edf4"><title>2026-06-17: 0 contributions</title></rect><rect x="780" y="195" width="11" height="11" rx="2.5" fill="#e7edf4"><title>2026-06-18: 0 contributions</title></rect><rect x="780" y="210" width="11" height="11" rx="2.5" fill="#e7edf4"><title>2026-06-19: 0 contributions</title></rect><rect x="780" y="225" width="11" height="11" rx="2.5" fill="#e7edf4"><title>2026-06-20: 0 contributions</title></rect><rect x="795" y="135" width="11" height="11" rx="2.5" fill="#e7edf4"><title>2026-06-21: 0 contributions</title></rect><rect x="795" y="150" width="11" height="11" rx="2.5" fill="#e7edf4"><title>2026-06-22: 0 contributions</title></rect><rect x="795" y="165" width="11" height="11" rx="2.5" fill="#e7edf4"><title>2026-06-23: 0 contributions</title></rect><rect x="795" y="180" width="11" height="11" rx="2.5" fill="#e7edf4"><title>2026-06-24: 0 contributions</title></rect><rect x="795" y="195" width="11" height="11" rx="2.5" fill="#e7edf4"><title>2026-06-25: 0 contributions</title></rect><rect x="795" y="210" width="11" height="11" rx="2.5" fill="#e7edf4"><title>2026-06-26: 0 contributions</title></rect><rect x="795" y="225" width="11" height="11" rx="2.5" fill="#e7edf4"><title>2026-06-27: 0 contributions</title></rect><rect x="810" y="135" width="11" height="11" rx="2.5" fill="#e7edf4"><title>2026-06-28: 0 contributions</title></rect><rect x="810" y="150" width="11" height="11" rx="2.5" fill="#e7edf4"><title>2026-06-29: 0 contributions</title></rect><rect x="810" y="165" width="11" height="11" rx="2.5" fill="#e7edf4"><title>2026-06-30: 0 contributions</title></rect><rect x="810" y="180" width="11" height="11" rx="2.5" fill="#e7edf4"><title>2026-07-01: 0 contributions</title></rect><rect x="810" y="195" width="11" height="11" rx="2.5" fill="#e7edf4"><title>2026-07-02: 0 contributions</title></rect><rect x="810" y="210" width="11" height="11" rx="2.5" fill="#ffd9cb"><title>2026-07-03: 2 contributions</title></rect><rect x="810" y="225" width="11" height="11" rx="2.5" fill="#ffd9cb"><title>2026-07-04: 2 contributions</title></rect><rect x="825" y="135" width="11" height="11" rx="2.5" fill="#ffd9cb"><title>2026-07-05: 8 contributions</title></rect><rect x="825" y="150" width="11" height="11" rx="2.5" fill="#e7edf4"><title>2026-07-06: 0 contributions</title></rect><rect x="825" y="165" width="11" height="11" rx="2.5" fill="#e7edf4"><title>2026-07-07: 0 contributions</title></rect><rect x="825" y="180" width="11" height="11" rx="2.5" fill="#e7edf4"><title>2026-07-08: 0 contributions</title></rect><rect x="825" y="195" width="11" height="11" rx="2.5" fill="#e7edf4"><title>2026-07-09: 0 contributions</title></rect><rect x="825" y="210" width="11" height="11" rx="2.5" fill="#e7edf4"><title>2026-07-10: 0 contributions</title></rect><rect x="825" y="225" width="11" height="11" rx="2.5" fill="#ffd9cb"><title>2026-07-11: 2 contributions</title></rect><rect x="840" y="135" width="11" height="11" rx="2.5" fill="#ffd9cb"><title>2026-07-12: 9 contributions</title></rect><rect x="840" y="150" width="11" height="11" rx="2.5" fill="#ffd9cb"><title>2026-07-13: 7 contributions</title></rect><rect x="840" y="165" width="11" height="11" rx="2.5" fill="#e7edf4"><title>2026-07-14: 0 contributions</title></rect><rect x="840" y="180" width="11" height="11" rx="2.5" fill="#e7edf4"><title>2026-07-15: 0 contributions</title></rect><rect x="840" y="195" width="11" height="11" rx="2.5" fill="#e7edf4"><title>2026-07-16: 0 contributions</title></rect><rect x="840" y="210" width="11" height="11" rx="2.5" fill="#ff6f47"><title>2026-07-17: 28 contributions</title></rect><rect x="840" y="225" width="11" height="11" rx="2.5" fill="#ff6f47"><title>2026-07-18: 36 contributions</title></rect><rect class="scan" x="20" y="130" width="30" height="112" fill="#159bc9" opacity="0"/></g>
  <text class="mono subtle" x="60" y="286">less</text>
  <rect x="152" y="276" width="11" height="11" rx="2.5" fill="#e7edf4"/><rect x="171" y="276" width="11" height="11" rx="2.5" fill="#ffd9cb"/><rect x="190" y="276" width="11" height="11" rx="2.5" fill="#ffb99f"/><rect x="209" y="276" width="11" height="11" rx="2.5" fill="#ff9472"/><rect x="228" y="276" width="11" height="11" rx="2.5" fill="#ff6f47"/>
  <text class="mono subtle" x="254" y="286">more</text>
  <text class="mono subtle" x="860" y="286">source: github · no badge farm</text>
  <circle cx="838" cy="281" r="4" fill="#ed5d35"/>
</svg>
